<svg width="32" height="33" viewBox="0 0 32 33" fill="none" xmlns="http://www.w3.org/2000/svg">
<path d="M15.655 0.481689C7.04934 0.481689 0 7.5928 0 16.4817C0 25.277 6.95779 32.4817 15.655 32.4817C24.2607 32.4817 31.3101 25.3706 31.3101 16.4817C31.3101 7.68637 24.2607 0.481689 15.655 0.481689ZM15.655 31.1717C7.69019 31.1717 1.28169 24.622 1.28169 16.4817C1.28169 8.34134 7.69019 1.79163 15.655 1.79163C23.6199 1.79163 30.0284 8.34134 30.0284 16.4817C30.1199 24.622 23.6199 31.1717 15.655 31.1717Z" fill="white"/>
<path d="M15.6551 28.4583C16.2044 28.4583 16.4791 28.084 16.5706 27.6162C16.6622 27.8033 16.8453 27.9904 17.0284 28.084C17.2115 28.084 17.4861 28.084 17.6692 27.9904C17.8523 27.8969 18.0354 27.7097 18.127 27.5226C18.2185 27.3355 18.2185 27.0548 18.127 26.8676C18.4016 27.2419 18.7678 27.3355 19.2256 27.1483C19.7749 26.8676 19.958 26.4934 19.6833 25.932C19.0425 24.3413 18.4016 22.8442 17.7608 21.2536C17.6692 21.0665 17.6692 20.9729 17.5777 20.7858C17.4861 20.6922 17.4861 20.5986 17.3946 20.5051C17.3946 20.4115 17.303 20.4115 17.2115 20.3179C18.2185 20.4115 18.6763 20.7858 18.9509 20.9729C19.0425 21.0665 19.0425 21.0665 19.3171 20.9729C19.4087 20.9729 19.5918 20.9729 19.6833 20.9729C19.7749 21.0665 19.958 21.16 20.0495 21.16C20.4157 21.4407 20.7819 21.7214 21.1481 22.0021C21.3312 22.1893 21.5143 22.3764 21.5143 22.6571C21.5143 22.8442 20.965 23.3121 20.8735 23.4992C20.5073 23.8735 21.0566 24.4349 21.789 24.4349C21.6059 24.2478 21.5143 24.0606 21.6059 23.8735C21.6974 23.8735 21.789 23.8735 21.9721 23.7799C22.1552 23.6864 22.0636 23.2185 22.1552 23.1249C22.4298 22.8442 23.1622 22.8442 23.7115 22.8442C23.8946 22.8442 24.1693 22.7507 24.0777 22.47C24.3524 22.47 24.4439 22.7507 24.4439 22.9378C24.7186 22.7507 24.9017 22.0957 23.9862 21.9086C24.1693 21.7214 24.4439 21.7214 24.627 21.9086C24.8101 21.6279 24.3524 21.16 23.62 21.4407C23.62 21.4407 23.2538 20.9729 22.3383 22.0957C22.2467 22.0021 22.0636 21.9086 21.9721 21.815C21.6059 21.4407 20.6904 20.5051 20.6904 20.5051C20.6904 19.9437 20.5988 18.9144 19.958 18.353C19.6833 18.0723 19.4087 17.9787 18.7678 17.7916C18.7678 17.7916 19.0425 17.3238 19.134 17.1366C19.6833 17.698 20.7819 17.8852 20.7819 16.9495C21.6974 17.8852 22.5214 17.3238 22.5214 16.7624C22.5214 17.0431 22.6129 17.3238 22.7045 17.6045C22.796 17.8852 23.2538 19.1016 24.2608 19.1016C24.2608 19.4758 24.2608 20.8793 25.5425 21.16C25.6341 21.16 25.6341 21.16 25.7256 21.2536C26.2749 21.9086 28.3806 22.5635 28.5637 22.3764C28.3806 22.2828 28.1059 22.0957 28.1059 21.3472C28.1059 20.8793 28.0144 18.2594 28.0144 14.6103C28.0144 13.3004 27.9228 9.08986 23.8031 8.52845C23.1622 8.43489 22.6129 8.52846 22.0636 8.90272C21.3312 9.46413 20.965 10.3998 21.4228 11.429V11.5226C21.6059 11.8033 21.5143 11.9904 21.3312 12.1776C20.965 12.5518 20.5988 12.739 20.1411 12.8325C19.8664 12.8325 19.5918 12.739 19.4087 12.5518C18.9509 12.084 18.6763 11.5226 18.4932 10.8676C18.3101 9.65126 18.5847 8.99629 18.5847 8.90272C18.9509 8.24775 19.5918 7.68635 20.4157 7.68635C20.7819 6.93781 21.8805 7.21851 21.8805 7.21851C22.1552 7.31208 22.2467 7.31208 22.3383 7.49922C22.3383 7.49922 22.796 6.75068 22.3383 6.46998C21.8805 6.18928 20.8735 6.09571 20.8735 6.09571C20.8735 5.62787 20.1411 5.2536 18.6763 5.5343C17.0284 5.81501 16.6622 5.16003 16.6622 5.16003C16.5706 6.00214 17.2115 6.37641 17.3946 6.56354C16.7537 7.31208 15.8382 8.71559 15.6551 10.6805C15.472 8.71559 14.5565 7.31208 13.9157 6.56354C14.0988 6.46998 14.7396 6.00214 14.6481 5.16003C14.6481 5.16003 14.2819 5.81501 12.634 5.5343C11.2607 5.2536 10.4368 5.62787 10.4368 6.09571C10.4368 6.09571 9.42972 6.18928 8.97197 6.46998C8.51422 6.75068 8.97197 7.49922 8.97197 7.49922C9.06352 7.40565 9.15507 7.31208 9.42972 7.21851C9.42972 7.21851 10.5283 6.93781 10.8945 7.68635C11.7185 7.77991 12.3593 8.24775 12.7255 8.90272C12.7255 8.90272 13.0917 9.55769 12.8171 10.8676C12.7255 11.5226 12.3593 12.084 11.9016 12.5518C11.7185 12.739 11.4438 12.9261 11.1692 12.8325C10.7114 12.739 10.3452 12.5518 9.97902 12.1776C9.79592 11.9904 9.70437 11.8033 9.88747 11.5226V11.429C10.3452 10.3998 9.97902 9.46413 9.24662 8.90272C8.69732 8.52846 8.14802 8.43489 7.50717 8.52845C3.47898 9.08986 3.29588 13.3004 3.29588 14.6103C3.29588 18.2594 3.20433 20.8793 3.20433 21.3472C3.20433 22.0957 2.92968 22.2828 2.74658 22.3764C3.02123 22.5635 5.12688 21.9086 5.58463 21.2536C5.58463 21.2536 5.67617 21.16 5.76772 21.16C7.04942 20.8793 7.04942 19.4758 7.04942 19.1016C8.05647 19.1016 8.51422 17.8852 8.60577 17.6045C8.69732 17.3238 8.78887 17.0431 8.78887 16.7624C8.78887 17.3238 9.61282 17.7916 10.5283 16.9495C10.5283 17.8852 11.6269 17.698 12.1762 17.1366C12.2678 17.3238 12.5424 17.7916 12.5424 17.7916C11.9016 17.8852 11.6269 18.0723 11.3523 18.353C10.6199 19.008 10.6199 20.0372 10.6199 20.5051C10.6199 20.5051 9.70437 21.4407 9.33817 21.815C9.24662 21.9086 9.06352 22.0021 8.97197 22.0957C7.96492 20.9729 7.69027 21.4407 7.69027 21.4407C6.95787 21.16 6.59167 21.6279 6.68322 21.9086C6.86632 21.7214 7.14098 21.815 7.32408 21.9086C6.31703 22.0957 6.59168 22.8442 6.86633 22.9378C6.86633 22.7507 6.95787 22.47 7.23252 22.47C7.23252 22.7507 7.41562 22.8442 7.59872 22.8442C8.05647 22.8442 8.88043 22.8442 9.15507 23.1249C9.33817 23.2185 9.24662 23.6864 9.33817 23.7799C9.42972 23.8735 9.61282 23.8735 9.70437 23.8735C9.70437 24.0606 9.70437 24.1542 9.52127 24.4349C10.2537 24.5285 10.7114 23.8735 10.4368 23.4992C10.2537 23.3121 9.79592 22.8442 9.79592 22.6571C9.79592 22.47 9.97902 22.1893 10.1621 22.0021C10.5283 21.7214 10.8945 21.4407 11.2607 21.16C11.3523 21.0665 11.4438 20.9729 11.6269 20.9729C11.7185 20.8793 11.9016 20.8793 11.9931 20.9729C12.2678 21.0665 12.2678 21.0665 12.3593 20.9729C12.634 20.7858 13.0917 20.4115 14.0988 20.3179C14.0072 20.3179 14.0072 20.4115 13.9157 20.5051C13.8241 20.5986 13.8241 20.6922 13.7326 20.7858C13.641 20.8793 13.641 21.0665 13.5495 21.2536C12.9086 22.8442 12.2678 24.3413 11.6269 25.932C11.4438 26.4934 11.6269 26.8676 12.0847 27.1483C12.4509 27.3355 12.9086 27.2419 13.1833 26.8676C13.0917 27.1483 13.0917 27.3355 13.1833 27.5226C13.2748 27.7097 13.4579 27.8969 13.641 27.9904C13.8241 28.084 14.0988 28.084 14.2819 28.084C14.5565 27.9904 14.6481 27.8969 14.7396 27.6162C14.8312 28.084 15.1058 28.4583 15.6551 28.4583Z" fill="white"/>
</svg>
