<svg width="32" height="33" fill="none" xmlns="http://www.w3.org/2000/svg"><path d="M15.655.482C7.049.482 0 7.592 0 16.482c0 8.795 6.958 16 15.655 16 8.606 0 15.655-7.111 15.655-16 0-8.796-7.05-16-15.655-16zm0 30.69c-7.965 0-14.373-6.55-14.373-14.69S7.69 1.792 15.655 1.792c7.965 0 14.373 6.55 14.373 14.69.092 8.14-6.408 14.69-14.373 14.69z" fill="#fff"/><path d="M15.655 28.458c.55 0 .824-.374.916-.842.091.187.274.374.457.468.184 0 .458 0 .641-.094.183-.093.366-.28.458-.467a.816.816 0 000-.655c.275.374.64.468 1.099.28.549-.28.732-.655.457-1.216-.64-1.59-1.281-3.088-1.922-4.678-.092-.188-.092-.281-.183-.468-.092-.094-.092-.187-.183-.28 0-.095-.092-.095-.183-.188 1.006.093 1.464.468 1.739.655.091.094.091.094.366 0h.366c.092.094.275.187.366.187l1.1.842c.182.187.365.374.365.655 0 .187-.549.655-.64.842-.367.375.183.936.915.936-.183-.187-.275-.374-.183-.561.091 0 .183 0 .366-.094s.092-.562.183-.655c.275-.28 1.007-.28 1.556-.28.184 0 .458-.094.367-.375.274 0 .366.28.366.468.275-.187.458-.842-.458-1.03a.436.436 0 01.641 0c.183-.28-.275-.748-1.007-.467 0 0-.366-.468-1.282.655-.091-.094-.274-.187-.366-.281l-1.282-1.31c0-.561-.091-1.59-.732-2.152-.275-.28-.55-.374-1.19-.561 0 0 .274-.468.366-.655.55.561 1.648.748 1.648-.188.915.936 1.74.375 1.74-.187 0 .281.09.562.183.843.091.28.549 1.497 1.556 1.497 0 .374 0 1.777 1.282 2.058.091 0 .091 0 .183.094.549.655 2.655 1.31 2.838 1.122-.183-.093-.458-.28-.458-1.029 0-.468-.092-3.088-.092-6.737 0-1.31-.091-5.52-4.21-6.082-.642-.093-1.191 0-1.74.375-.733.561-1.099 1.497-.641 2.526v.094c.183.28.091.467-.092.655a2.173 2.173 0 01-1.19.654c-.275 0-.55-.093-.732-.28-.458-.468-.733-1.03-.916-1.684-.183-1.217.092-1.872.092-1.965.366-.655 1.007-1.217 1.83-1.217.367-.748 1.466-.467 1.466-.467.274.093.366.093.457.28 0 0 .458-.748 0-1.029-.457-.28-1.465-.374-1.465-.374 0-.468-.732-.842-2.197-.562-1.648.281-2.014-.374-2.014-.374-.091.842.55 1.216.733 1.404a7.429 7.429 0 00-1.74 4.117 7.43 7.43 0 00-1.74-4.117c.184-.094.825-.562.733-1.404 0 0-.366.655-2.014.374-1.373-.28-2.197.094-2.197.562 0 0-1.007.093-1.465.374-.458.28 0 1.03 0 1.03.092-.094.183-.188.458-.281 0 0 1.098-.281 1.465.467a2.368 2.368 0 011.83 1.217s.367.655.092 1.965c-.091.655-.458 1.216-.915 1.684-.183.187-.458.374-.733.28a2.173 2.173 0 01-1.19-.654c-.183-.188-.275-.375-.092-.655v-.094c.458-1.03.092-1.965-.64-2.526-.55-.375-1.099-.468-1.74-.375C3.48 9.09 3.296 13.3 3.296 14.61c0 3.65-.092 6.27-.092 6.737 0 .749-.274.936-.457 1.03.274.187 2.38-.468 2.838-1.123 0 0 .091-.094.183-.094 1.281-.28 1.281-1.684 1.281-2.058 1.007 0 1.465-1.217 1.557-1.497.091-.281.183-.562.183-.843 0 .562.824 1.03 1.74.188 0 .935 1.098.748 1.647.187.092.187.366.655.366.655-.64.093-.915.28-1.19.561-.732.655-.732 1.684-.732 2.152l-1.282 1.31c-.091.094-.274.187-.366.28-1.007-1.122-1.282-.654-1.282-.654-.732-.281-1.098.187-1.007.468.183-.188.458-.094.641 0-1.007.187-.732.935-.458 1.029 0-.187.092-.468.367-.468 0 .28.183.374.366.374.457 0 1.281 0 1.556.28.183.095.092.562.183.656.092.093.275.093.366.093 0 .188 0 .281-.183.562.733.094 1.19-.561.916-.936-.183-.187-.641-.655-.641-.842 0-.187.183-.468.366-.655l1.099-.842c.091-.093.183-.187.366-.187a.274.274 0 01.366 0c.275.094.275.094.366 0 .275-.187.733-.561 1.74-.655-.092 0-.092.093-.183.187-.092.094-.092.187-.183.28-.092.094-.092.282-.184.469-.64 1.59-1.281 3.087-1.922 4.678-.183.561 0 .936.458 1.216.366.188.824.094 1.098-.28-.091.28-.091.468 0 .655.092.187.275.374.458.467.183.094.458.094.64.094.275-.094.367-.187.459-.468.091.468.366.842.915.842z" fill="#fff"/></svg>