<svg width="218" height="31" fill="none" xmlns="http://www.w3.org/2000/svg"><path d="M29.447 7.096h4.04V24.2c0 4.1-1.18 6.8-5.388 6.8a7.964 7.964 0 01-5.233-1.979l.795-3.01c.41.465 1.708 1.62 3.546 1.644 1.278.016 2.24-.898 2.24-2.334V7.096zm23.883 9.477H40.136c0 2.769 1.919 4.851 5.488 4.851 2.352 0 4.532-.961 5.693-2.08l.94 2.934c-1.785 1.642-4.344 2.496-7.14 2.496-5.015 0-9.089-3.757-9.089-8.816 0-5.126 3.907-9.295 8.787-9.295 5.42 0 8.618 3.657 8.618 8.713a7.38 7.38 0 01-.101 1.197zm-8.516-6.562c-2.322 0-4.14 1.505-4.713 3.896h9.528c-.438-2.22-2.087-3.896-4.815-3.896zm17.476 8.235c0 2.154 1.178 2.905 2.491 2.905a6.966 6.966 0 002.827-.581v3.212c-1.144.514-2.66.718-4.039.718-2.996 0-5.286-1.47-5.286-5.775v-8.166h-3.331V7.175h3.269l1.056-3.997h3.012v3.997h5.286v3.384H62.29v7.687zM74.554 0v24.26H70.54V0h4.014zm36.119 14.625c0-2.46-1.17-3.999-3.198-3.999-1.516 0-3.972 1.06-5.118 3.35V24.26h-4.006V7.175h4.006v2.571c1.481-1.948 3.805-3.006 6.295-3.006 3.468 0 6.026 2.46 6.026 6.868v10.66h-4.005v-9.643zm20.504 9.635v-2.22a6.787 6.787 0 01-2.361 2.002 6.68 6.68 0 01-2.991.732c-4.916 0-8.214-4.068-8.214-9.056 0-4.954 3.298-9.055 8.214-9.055a6.707 6.707 0 012.994.75 6.816 6.816 0 012.358 2.019V0h4.006v24.26h-4.006zm0-5.363v-6.329a5.246 5.246 0 00-1.826-1.55 5.166 5.166 0 00-2.314-.568c-2.827 0-5.15 2.427-5.15 5.263a5.286 5.286 0 00.947 3.09 5.156 5.156 0 002.558 1.933 5.077 5.077 0 003.189.034 5.154 5.154 0 002.596-1.88v.007zm-36.06-2.324H81.92c0 2.769 1.917 4.851 5.486 4.851 2.352 0 4.534-.961 5.693-2.08l.938 2.934c-1.785 1.642-4.343 2.496-7.137 2.496-5.017 0-9.09-3.757-9.09-8.816 0-5.126 3.897-9.295 8.786-9.295 5.42 0 8.617 3.657 8.617 8.713a7.5 7.5 0 01-.097 1.197zm-8.518-6.562c-2.323 0-4.14 1.505-4.713 3.896h9.527c-.438-2.22-2.087-3.896-4.814-3.896z" fill="#fff"/><path d="M24.206.063L0 7.175l10.1 10.252 7.583 7.347L24.206.064z" fill="#0BD194"/><path d="M142.369 8.603v4.313l3.213-4.313h.553v5.017h-.524V9.325l-3.203 4.305h-.563V8.603h.524zm9.083 2.657h-3.213v2.36h-.524V8.603h.524v2.175h3.213V8.603h.522v5.017h-.522v-2.36zm5.81-1.443c-.001.227-.065.45-.183.643a1.51 1.51 0 01-.489.51 1.354 1.354 0 01.767 1.795 1.36 1.36 0 01-.757.758c-.17.068-.352.101-.534.097h-2.51V8.603h2.393c.345-.01.681.116.937.352a1.129 1.129 0 01.376.862zm-.524.061a.699.699 0 00-.267-.577 1 1 0 00-.651-.216h-1.74v1.685h1.74a.915.915 0 00.851-.543.865.865 0 00.067-.349zm-2.658 3.26h1.838c.258.01.511-.08.707-.252a.857.857 0 00.282-.672.917.917 0 00-.282-.692.98.98 0 00-.707-.271h-1.838v1.887zm9.23-2.231v.11h-4.527a2.678 2.678 0 000 .22 1.882 1.882 0 00.628 1.466c.431.38.988.58 1.559.561.316-.003.629-.066.923-.185a2.18 2.18 0 00.779-.497l.365.382a2.57 2.57 0 01-.937.593 3.26 3.26 0 01-1.138.216 2.769 2.769 0 01-1.927-.708 2.334 2.334 0 01-.78-1.822c-.017-.73.245-1.44.733-1.977a2.315 2.315 0 011.798-.813c.811 0 1.435.246 1.873.737a2.51 2.51 0 01.651 1.717zm-.554-.372a1.873 1.873 0 00-.617-1.127 1.955 1.955 0 00-1.364-.457 1.842 1.842 0 00-1.222.435c-.348.297-.592.7-.695 1.15h3.898zm2.348-.963a2.36 2.36 0 00-.569 1.54c0 .566.202 1.113.569 1.54a1.888 1.888 0 001.467.616 2.093 2.093 0 001.543-.682l.365.382a2.573 2.573 0 01-1.908.803 2.367 2.367 0 01-.998-.201 2.406 2.406 0 01-.826-.602 2.706 2.706 0 01-.734-1.857c0-.691.263-1.356.734-1.856a2.366 2.366 0 011.824-.802 2.572 2.572 0 011.908.802l-.365.382a2.118 2.118 0 00-1.543-.682 1.89 1.89 0 00-.799.147 1.92 1.92 0 00-.668.47zm8.109-.969v.482h-1.859v4.535h-.524V9.085h-1.857v-.482h4.24zm1.364 0v4.313l3.211-4.313h.553v5.017h-.524V9.325l-3.203 4.305h-.563V8.603h.526zm5.87 4.535h3.243V8.603h.522v4.535h.723v1.896h-.525V13.62h-4.481V8.603h.524l-.006 4.535zm6.067-4.535v4.313l3.213-4.313h.559v5.017h-.524V9.325l-3.201 4.305H186V8.603h.514zm9.567 4.4a2.885 2.885 0 01-1.956.768 2.883 2.883 0 01-1.956-.768 2.745 2.745 0 01-.752-1.891c0-.706.269-1.384.752-1.892a2.883 2.883 0 011.956-.767c.723 0 1.421.273 1.956.767a2.75 2.75 0 01.752 1.892 2.75 2.75 0 01-.752 1.891zm-1.948.346a2.064 2.064 0 001.558-.652 2.3 2.3 0 00.628-1.582 2.3 2.3 0 00-.628-1.583 2.171 2.171 0 00-3.117 0 2.314 2.314 0 000 3.165 2.054 2.054 0 001.551.653h.008zm7.573-2.089h-3.213v2.36h-.524V8.603h.524v2.175h3.213V8.603h.522v5.017h-.522v-2.36zm5.839 0h-3.211v2.36h-.524V8.603h.524v2.175h3.211V8.603h.524v5.017h-.524v-2.36zm3.3 2.51a1.737 1.737 0 01-1.2-.395 1.315 1.315 0 01-.44-1.034 1.267 1.267 0 01.465-1.038 2.402 2.402 0 011.127-.487c.659-.086 1.322-.13 1.987-.13v-.51c0-.475-.119-.802-.357-.98a1.628 1.628 0 00-.987-.265 2.158 2.158 0 00-1.573.692l-.335-.361a2.726 2.726 0 012.005-.813c.293-.007.585.04.861.14.195.069.375.177.528.317.123.13.215.288.267.46.051.141.086.288.103.437 0 .101.01.224.01.372v3.441h-.522v-.975c-.581.753-1.227 1.13-1.939 1.13zm0-.482c.745 0 1.394-.425 1.949-1.274v-.842a13.624 13.624 0 00-1.898.12 1.65 1.65 0 00-.302.076 2.17 2.17 0 00-.37.17.998.998 0 00-.347.326.86.86 0 00-.138.48.795.795 0 00.35.728c.229.139.49.21.756.208v.008zm6.633-1.616h-1.158l-1.352 1.948h-.672l1.403-1.948a1.443 1.443 0 01-1.029-.51 1.564 1.564 0 01-.374-1.025c-.002-.397.148-.78.419-1.067a1.472 1.472 0 011.142-.467H218v5.017h-.524l.002-1.948zm0-2.587h-1.631a1.012 1.012 0 00-.731.285 1.131 1.131 0 00-.298.768c0 .284.106.559.298.767a1.019 1.019 0 00.731.287h1.631V9.085zM145.611 19.77h-3.242v4.536h-.524V19.29h4.286v5.016h-.52V19.77zm1.422 4.536v-.483h.317c.33 0 .565-.184.711-.552.147-.367.217-1.028.217-1.977V19.29h3.528v5.016h-.524V19.77h-2.496v1.515c0 2.013-.484 3.02-1.451 3.02h-.302zm7.542.15a1.736 1.736 0 01-1.202-.395 1.311 1.311 0 01-.438-1.033 1.252 1.252 0 01.463-1.038 2.374 2.374 0 011.126-.487 14.966 14.966 0 011.988-.13v-.512c0-.475-.119-.805-.357-.99a1.63 1.63 0 00-.988-.264 2.137 2.137 0 00-1.572.692l-.335-.362a2.753 2.753 0 012.007-.813c.292-.007.583.04.859.14.195.07.375.177.528.317.123.13.215.29.267.463.051.14.086.286.103.435 0 .1.012.225.012.372v3.44h-.524v-.972c-.581.757-1.226 1.136-1.937 1.137zm0-.482c.744 0 1.39-.425 1.937-1.274v-.843a13.624 13.624 0 00-1.898.121c-.103.016-.204.04-.302.075a2.31 2.31 0 00-.37.17.998.998 0 00-.347.326.858.858 0 00-.138.483.783.783 0 00.35.726c.231.143.497.218.768.216zm7.392-4.684v.48h-1.859v4.536h-.524V19.77h-1.856v-.48h4.239zm3.805 5.166h-.298v1.896h-.516v-1.896h-.298a2.446 2.446 0 01-1.828-.791 2.681 2.681 0 01-.765-1.88c0-.703.275-1.379.765-1.878a2.447 2.447 0 011.828-.791h.298V17.16h.522v1.956h.298a2.44 2.44 0 01.995.201c.315.136.598.337.833.59.489.5.764 1.175.764 1.879s-.275 1.38-.764 1.879c-.235.253-.52.455-.835.59a2.445 2.445 0 01-.999.2zm-.999-4.865c-.577 0-1.13.232-1.538.646a2.223 2.223 0 00-.637 1.56c0 .586.229 1.148.637 1.561a2.16 2.16 0 001.538.647h.179V19.59h-.179zm.88 4.414a2.165 2.165 0 001.529-.652 2.233 2.233 0 00.474-2.4 2.138 2.138 0 00-.477-.712 2.054 2.054 0 00-1.526-.65h-.179v4.414h.179zm8.073-.316a2.888 2.888 0 01-1.957.767 2.889 2.889 0 01-1.958-.767 2.753 2.753 0 01-.749-1.892c0-.705.268-1.383.749-1.892a2.889 2.889 0 011.958-.767c.723 0 1.421.273 1.957.767.481.509.75 1.187.75 1.892 0 .705-.269 1.383-.75 1.892zm-1.949.346a2.084 2.084 0 001.559-.653c.402-.425.627-.992.627-1.582 0-.59-.225-1.157-.627-1.582a2.172 2.172 0 00-3.117 0 2.31 2.31 0 00-.624 1.582c0 .589.223 1.155.624 1.582a2.077 2.077 0 001.541.653h.017zm6.219.421a2.484 2.484 0 01-1.868-.803v2.7h-.523V19.29h.523v.66c.238-.26.527-.467.849-.607.322-.14.669-.21 1.019-.205a2.449 2.449 0 011.828.791c.489.499.764 1.175.764 1.879s-.275 1.38-.764 1.879a2.445 2.445 0 01-1.828.77v-.001zm-.119-4.865a2.06 2.06 0 00-.974.245c-.3.16-.561.383-.766.657V23.1c.198.28.459.508.762.663.306.16.644.242.988.241a2.161 2.161 0 001.53-.651c.406-.413.634-.973.635-1.556a2.14 2.14 0 00-.638-1.556 2.055 2.055 0 00-1.537-.65v-.001zm6.337 2.557l1.927-2.858h.563v5.016h-.524v-4.154l-1.818 2.659h-.31l-1.808-2.659v4.154h-.53V19.29h.563l1.937 2.858zm5.266 2.308a1.734 1.734 0 01-1.2-.396 1.297 1.297 0 01-.336-.465 1.327 1.327 0 01-.105-.567 1.266 1.266 0 01.464-1.038 2.37 2.37 0 011.128-.487 14.886 14.886 0 011.986-.13v-.513c0-.474-.119-.804-.355-.988a1.633 1.633 0 00-.99-.265 2.137 2.137 0 00-1.57.692l-.337-.362a2.753 2.753 0 012.007-.813c.292-.007.583.04.859.14.195.07.375.177.53.317.123.13.215.29.267.463.051.14.086.286.103.435v3.812h-.524v-.972c-.573.756-1.215 1.136-1.927 1.137zm0-.483c.744 0 1.39-.424 1.937-1.273v-.843a13.64 13.64 0 00-1.898.12 1.65 1.65 0 00-.3.076 2.33 2.33 0 00-.372.17.979.979 0 00-.345.326.85.85 0 00-.139.483.794.794 0 00.351.726c.231.143.496.217.766.215z" fill="#fff"/></svg>