<svg width="126" height="21" fill="none" xmlns="http://www.w3.org/2000/svg"><path fill-rule="evenodd" clip-rule="evenodd" d="M17.098.631H9.4v4.23h7.697V.63zm92.362 5.64h-3.473c-1.333 0-2.484.06-3.087.203-.942.224-1.692.716-2.245 1.477a4.87 4.87 0 00-.991 2.934v9.484h4.198v-9.164c.014-1.557 1.26-2.115 1.96-2.115h3.638V6.27zM91.268 20.368V6.27h-4.199v14.1h4.198zM48.648 6.626c-.645-.236-1.44-.356-2.775-.356H38.79V9.1l5.468-.014 1.868.008c1.23.013 2.063 1.253 1.998 2.016l.011.809-6.821.005c-1.114 0-1.754.163-2.491.981a4.5 4.5 0 00-1.195 3.102c0 1.177.41 2.573 1.21 3.343.799.773 1.787 1.019 2.933 1.019h10.327v-7.983c0-1.622-.12-2-.281-2.507a10.43 10.43 0 01-.092-.298c-.316-.763-.717-1.328-1.33-1.94-.468-.458-1.086-.795-1.745-1.015zm-23.155-.349V.631h-4.149V20.37h8.96c1.718 0 3.107-.605 4.202-2.117 1.005-1.4 1.515-3.055 1.515-4.973 0-1.84-.51-3.445-1.53-4.781-1.096-1.435-2.487-2.154-4.139-2.22h-4.859zm48.98 7.074V.631h-4.198V20.37h4.198v-7.01l5.469 7.01h5.027l-5.92-7.014 5.906-7.01H79.97l-5.497 7.006zm-9.39-6.877c-.576-.143-1.512-.204-2.789-.204h-8.112v14.082l4.198.017V9.083l3.28-.006s2.325-.064 2.333 2.26l-.015 9.032h4.198l-.009-9.534a4.87 4.87 0 00-.933-2.885 3.589 3.589 0 00-2.15-1.476zm50.707 8.828l.015-9.032h-4.198l.009 9.534c0 1.047.312 2.014.934 2.885a3.584 3.584 0 002.15 1.476c.576.143 1.513.204 2.79.204h8.111V6.287l-4.198-.017v11.286l-3.279.006s-2.326.064-2.334-2.26zM25.473 9.09h3.44c.953 0 1.724.424 2.34 1.295.622.864.924 1.864.924 2.99 0 1.096-.289 2.08-.861 2.914-.56.832-1.3 1.26-2.222 1.26h-3.62V9.09zm17.27 5.649l5.361-.01.02 2.82h-5.531c-.367.002-.617.003-.928-.256-.324-.278-.539-.63-.539-1.066 0-.488.223-.887.561-1.183.36-.298 1.056-.306 1.056-.306zM91.267 1.335H87.07V4.86h4.198V1.336zm2.1 15.508h4.198v3.525h-4.198v-3.525zM5.203 8.385h11.895v4.23H5.203v-4.23zm11.895 7.754H.305v4.23h16.793v-4.23z" fill="#E4ECEE"/></svg>