<svg width="86" height="23" fill="none" xmlns="http://www.w3.org/2000/svg"><path fill-rule="evenodd" clip-rule="evenodd" d="M48.9.872v-.05l-.05.003a.684.684 0 00-.08.008l-.267.046c-.406.071-.812.142-1.217.215-.3.054-.601.11-.902.166-.286.053-.57.106-.856.157l-1.039.187-.961.172c-.363.065-.725.132-1.087.205-.036.007-.088.056-.09.089-.01.132-.012.267 0 .399.003.039.057.097.095.104.093.018.188.03.282.043.102.013.203.026.303.046.459.091.836.307 1.052.742.236.473.332.982.353 1.505.028.687.051 1.374.062 2.061.015.929.024 1.858.022 2.786-.008 2.68-.02 5.358-.036 8.037-.002.46-.013.922-.024 1.382v.003l-.016.69-.01.597v.001c-.006.325-.012.65-.02.975-.002.09.015.137.119.155.315.056.63.114.945.173.49.09.98.182 1.471.263.447.073.9.115 1.351.156l.056.005c.176.017.353.023.53.03.137.005.273.01.41.02a10 10 0 002.006-.068c.538-.07 1.07-.201 1.596-.34a6.839 6.839 0 001.906-.852 6.887 6.887 0 001.77-1.595 7.53 7.53 0 001.223-2.332c.208-.642.33-1.303.406-1.975a9.395 9.395 0 00-.206-3.363 7.149 7.149 0 00-.64-1.663 6.403 6.403 0 00-1.162-1.56 5.728 5.728 0 00-1.22-.913 5.164 5.164 0 00-1.83-.612 7.038 7.038 0 00-2.307.089 6.459 6.459 0 00-1.798.637l-.013.007c-.107.056-.161.085-.188.069-.027-.017-.026-.08-.024-.205v-.021l.003-1.17c.003-.952.006-1.903.016-2.855.007-.584.025-1.168.042-1.752.008-.267.017-.533.024-.8V.872zm4.788 13.398l-.036.003c.018.828-.057 1.651-.216 2.46-.113.57-.27 1.136-.455 1.686-.233.694-.575 1.338-1.072 1.885-.511.561-1.123.924-1.914.887a64.683 64.683 0 01-.913-.051c-.126-.008-.18-.065-.182-.204-.009-.41-.021-.821-.034-1.232-.011-.363-.023-.725-.03-1.088a156.4 156.4 0 01-.038-2.372 594.72 594.72 0 01-.022-4.45c0-.542.007-1.084.014-1.625.005-.409.01-.817.012-1.225.001-.124.023-.184.156-.226.416-.13.833-.242 1.271-.25.8-.017 1.458.292 1.996.871.458.493.748 1.082.965 1.712.173.505.3 1.022.357 1.552.041.387.071.775.101 1.163l.04.504zM13.685 8.356v-.258h-.604c-.268 0-.268.002-.317.26l-.003.012c-.117.61-.306 1.194-.674 1.705a2.01 2.01 0 01-1.041.776c-.253.08-.51.09-.766.099l-.139.005-.563.026c-.486.021-.973.043-1.46.068-.116.006-.141-.032-.14-.144.008-.568.014-1.135.02-1.703l.019-1.548c.007-.528.023-1.057.04-1.585l.044-1.318c.022-.648.044-1.295.063-1.943.003-.113.028-.153.15-.153 1.11.005 2.22.004 3.33.002a5.1 5.1 0 011.335.173 3.95 3.95 0 011.644.893c.633.568 1.08 1.271 1.428 2.036.16.35.296.71.433 1.069.046.12.092.242.14.362.024.064.04.094.116.07.265-.086.531-.167.799-.245.07-.02.093-.058.09-.129-.01-.201-.016-.403-.02-.605l-.009-.357a293.735 293.735 0 01-.071-4.582c-.001-.123-.04-.149-.154-.149l-13.327.003H.41c-.04 0-.078.004-.121.007L.22 1.21l.001.21c.002.163.004.322-.004.482-.007.132.034.177.168.187.316.024.633.053.946.104.626.102 1.104.42 1.397.998.23.451.348.937.397 1.432a56.218 56.218 0 01.23 4.776c.007 1.169 0 2.339-.015 3.508-.013.972-.04 1.944-.069 2.916l-.006.217-.008.293c-.02.778-.041 1.556-.167 2.328-.076.46-.18.91-.404 1.323-.224.412-.547.715-1.015.828-.16.04-.324.069-.488.098-.085.015-.17.03-.256.047l-.488.098-.219.044v.168c0 .176-.001.346.004.516.001.028.05.065.085.079.024.01.052.008.08.006a.464.464 0 01.035-.002h10.722a.642.642 0 01.076 0c.074.005.1-.03.099-.1v-.201c0-.127 0-.253-.006-.38 0-.034-.048-.091-.08-.097a24.912 24.912 0 01-.253-.05c-.27-.052-.54-.105-.812-.13-.751-.066-1.293-.407-1.597-1.11-.248-.57-.35-1.176-.399-1.787a55.853 55.853 0 01-.132-2.485c-.024-.68-.036-1.36-.048-2.041l-.013-.705a18.413 18.413 0 01-.002-.446l.001-.215h.121c.193.008.387.014.58.021.481.017.962.033 1.442.058h.001c.29.015.587.03.866.102.6.155 1.004.565 1.294 1.099.263.485.409 1.009.515 1.545.02.101.064.122.155.12.145-.004.29-.002.435-.001l.12.001h.002c.174.001.174.001.174-.177v-6.53zm1.777 6.155a9.23 9.23 0 01.25-2.097c.168-.71.42-1.391.779-2.033a6.815 6.815 0 012.971-2.855 7.485 7.485 0 011.78-.617c.3-.065.609-.1.916-.135l.18-.021c.765-.09 1.528-.042 2.286.075 1.136.175 2.19.563 3.116 1.258a6.256 6.256 0 011.724 1.98c.328.588.567 1.208.738 1.86.196.752.3 1.517.301 2.291 0 .531-.026 1.065-.088 1.592a7.506 7.506 0 01-.589 2.124 7.383 7.383 0 01-1.128 1.832 6.876 6.876 0 01-2.703 1.923 8.15 8.15 0 01-1.659.453 9.009 9.009 0 01-1.836.113 8.983 8.983 0 01-2.02-.298 6.597 6.597 0 01-2.335-1.15 6.205 6.205 0 01-1.447-1.615 7.507 7.507 0 01-.802-1.76 8.133 8.133 0 01-.332-1.585 27.95 27.95 0 01-.072-.915l-.03-.42zm10.468-.202l-.027-.41c-.02-.3-.041-.607-.057-.913a11.354 11.354 0 00-.304-2.086c-.196-.82-.462-1.615-.986-2.299-.336-.44-.75-.765-1.301-.877-.688-.14-1.298.03-1.803.517-.368.355-.59.808-.762 1.283a8.393 8.393 0 00-.383 1.546c-.116.727-.18 1.459-.2 2.194a55.21 55.21 0 00-.012 1.726c.004.844.084 1.681.233 2.511.115.638.275 1.263.524 1.865.17.411.375.8.66 1.141.611.734 1.363.954 2.258.67.553-.176.93-.58 1.212-1.073.414-.728.604-1.529.722-2.347.075-.522.123-1.05.156-1.576.027-.43.04-.859.052-1.294l.018-.578zm46.8 4.84l-.09-.108-.218.14c-.107.07-.212.137-.319.205a4.382 4.382 0 01-1.886.67 7.995 7.995 0 01-1.374.038 5.199 5.199 0 01-2.014-.521c-.964-.482-1.643-1.244-2.104-2.21a6.608 6.608 0 01-.517-1.638 8.825 8.825 0 01-.137-1.848c.002-.075.03-.095.1-.093a6.27 6.27 0 00.362.001h8.512c.169 0 .169 0 .17-.152v-.015a9.704 9.704 0 00-.179-1.844 7.587 7.587 0 00-.608-1.891 5.834 5.834 0 00-1.062-1.537 5.068 5.068 0 00-1.695-1.159 6.22 6.22 0 00-1.575-.41A8.085 8.085 0 0065.9 6.8c-.595.08-1.18.209-1.734.45l-.03.013c-.303.133-.608.266-.898.426a6.505 6.505 0 00-1.883 1.588 6.807 6.807 0 00-.959 1.513c-.2.444-.353.91-.503 1.375-.208.645-.285 1.317-.324 1.99a8.678 8.678 0 00.221 2.456c.17.736.437 1.435.817 2.087a6.9 6.9 0 001.592 1.884 7.216 7.216 0 002.527 1.337c.628.189 1.27.29 1.925.327a8.452 8.452 0 001.886-.11 7.64 7.64 0 002.875-1.129c.595-.396 1.132-.857 1.56-1.435.018-.026.032-.082.018-.1a10.836 10.836 0 00-.26-.322zm-4.026-6.583l-.007.067h-.472l-3.66.071a7.11 7.11 0 00-.387.02c-.076.005-.115-.02-.105-.103l.049-.417v-.001c.035-.312.07-.624.12-.934.052-.325.129-.648.218-.965.178-.635.424-1.242.82-1.776.327-.44.732-.775 1.297-.842.467-.055.857.114 1.167.47.267.307.43.67.552 1.05a8.51 8.51 0 01.376 2.241l.039 1.005c0 .036-.003.073-.007.114zm16.263-3.838l.013.654.03 1.441c.003.129.007.258.015.386.005.08-.014.123-.102.144-.085.02-.168.047-.25.074-.077.024-.153.048-.23.068-.03.007-.098-.03-.108-.06a9.556 9.556 0 00-.831-1.849c-.398-.662-.9-1.225-1.625-1.534a3.318 3.318 0 00-.864-.228 3.35 3.35 0 00-.895-.001c-.705.1-1.197.512-1.485 1.153a2.24 2.24 0 00-.087 1.66c.122.367.384.644.677.888a5.2 5.2 0 001.134.699c.523.245 1.053.475 1.583.705l.049.022c.154.067.31.13.466.192.246.098.49.196.727.311.708.344 1.368.764 1.869 1.387.439.546.665 1.18.74 1.875a5 5 0 01-.087 1.615 4.377 4.377 0 01-1.047 2.045 5.205 5.205 0 01-1.665 1.197 7.071 7.071 0 01-2.02.582 9.675 9.675 0 01-2.159.078l-.306-.025c-.437-.035-.874-.07-1.308-.126a13.102 13.102 0 01-1.378-.255 15.222 15.222 0 01-.953-.276l-.438-.135c-.088-.026-.109-.08-.11-.17a878.07 878.07 0 00-.074-3.254v-.008l-.005-.168a32.638 32.638 0 00-.022-.656c-.003-.075.018-.114.1-.132.147-.032.29-.074.432-.123.107-.036.155-.016.198.098.268.711.582 1.4 1.005 2.035.309.463.673.878 1.125 1.205.678.492 1.45.685 2.279.656.64-.023 1.22-.22 1.688-.68.354-.348.558-.77.63-1.265.049-.33.03-.653-.06-.968-.145-.506-.497-.85-.92-1.133-.607-.405-1.28-.667-1.957-.927a60.57 60.57 0 00-.383-.146c-.49-.184-.98-.369-1.448-.598-.74-.362-1.391-.856-1.831-1.58a3.643 3.643 0 01-.428-1.03 4.66 4.66 0 01-.066-1.892c.065-.393.2-.77.38-1.13a4.53 4.53 0 011.237-1.511c.403-.323.84-.594 1.326-.773l.05-.019c.338-.124.676-.25 1.024-.333a7.49 7.49 0 01.9-.142l.154-.018c.704-.085 1.407-.032 2.11.026.734.06 1.455.185 2.164.382.268.074.531.17.793.265l.118.042c.038.014.08.077.083.12.016.329.026.659.036.934v.002l.007.204zM37.11 10.042l.092-3.325-.4.08c-.287.057-.563.113-.84.166-.244.048-.49.094-.734.14a196.074 196.074 0 00-1.936.378l-1.054.209c-.494.097-.99.19-1.485.282l-.018.004c-.068.012-.108.037-.106.115.005.125.005.25.001.374-.003.076.026.106.1.115.116.015.231.032.346.049.097.014.194.028.291.04.476.063.86.264 1.074.714.147.31.216.643.24.983l.018.234c.034.449.068.898.077 1.348.02 1.031.034 2.063.025 3.094-.009.969-.035 1.937-.06 2.906l-.017.652c-.014.546-.041 1.092-.27 1.603-.208.466-.575.718-1.077.786-.166.023-.331.048-.497.073l-.24.036v.767h8.944l.032.002a.25.25 0 00.083-.006c.026-.008.063-.039.063-.06.004-.186.003-.372.003-.557v-.145l-.321-.028a33.36 33.36 0 00-.7-.058c-.322-.023-.633-.075-.903-.262-.338-.236-.485-.594-.542-.975a16.03 16.03 0 01-.171-1.663 72.737 72.737 0 01-.08-3.094c-.002-.984.017-1.97.035-2.954l.015-.837a.295.295 0 01.08-.178c.276-.295.638-.438 1.017-.543a4.132 4.132 0 011.584-.102 4.12 4.12 0 011.237.335c.165.075.327.158.49.242l.225.114a.246.246 0 01.012-.016.118.118 0 00.023-.035l.328-.843a702.01 702.01 0 01.676-1.731l.178-.454.098-.251c.07-.176.139-.35.206-.527.028-.076.048-.14-.06-.197-.724-.383-1.493-.446-2.28-.316-.487.08-.945.269-1.372.525-.919.551-1.58 1.34-2.094 2.263a14.18 14.18 0 00-.295.566l-.041-.008v-.03z" fill="#E4ECEE"/></svg>