<svg width="48" height="44" fill="none" xmlns="http://www.w3.org/2000/svg"><path d="M37.937 20.257c3.433 0 6.018-1.42 7.924-3.89l-2.547-1.928a6.711 6.711 0 01-2.376 1.947 6.765 6.765 0 01-3 .69c-3.727 0-6.427-3.011-6.427-6.707 0-3.696 2.656-6.877 6.532-6.877 1.724 0 2.941.404 4.004 1.057v3.25h3.205V3.06l-.614-.48C42.876 1.206 40.185.476 37.936.476c-5.498 0-9.97 4.437-9.97 9.893 0 5.45 4.469 9.889 9.97 9.889h.001zm6.65 19.512l-.114-4.554V24.101h-6.685v3.182h3.309v7.54c0 3.248-2.5 5.548-5.023 5.548-2.522 0-3.839-1.735-3.839-4.982V24.1h-6.244v3.181h2.868v8.66c0 4.406 2.49 7.442 6.931 7.442 2.553 0 4.496-1.405 5.656-3.571h.051l.458 3.028h5.137v-3.067h-2.5v-.006l-.005.002zM27.227.943h-5.571l-4.845 13.96h-.076L11.916.941H5.98v3.182h3.339l5.745 15.912h3.053v-.004l5.991-15.906h3.116V.943l.003-.001zM.767 42.882h3.3v-3.274h-3.3v3.274zM13.515 27.79h-.037l-.207-3.69H7.38V27h3.135v12.77H7.38v3.068h14.562V39.83h-8.107v-7.706c.366-2.79 2.474-5.171 5.35-5.171h.052l-.058 2.85h3.205V24.05H19.85c-2.902-.008-5.056 1.55-6.335 3.743v-.001z" fill="#E4ECEE"/></svg>