<svg width="128" height="17" fill="none" xmlns="http://www.w3.org/2000/svg"><path fill-rule="evenodd" clip-rule="evenodd" d="M127.311 2.187a1.57 1.57 0 00-.809-1.375.3.3 0 01-.016.152 1.23 1.23 0 01-.122.245 4.084 4.084 0 01-.264.377 3.21 3.21 0 01-.282.298c-.084.082-.169.164-.246.254-.256.299-.401.76-.322 1.149.021.1.068.225.163.278.564.313.978-1.03.787-1.427-.027-.051-.079-.143-.15-.13-.354.066-.517 1.216-.297 1.3-.01.135-.226.219-.289-.033a1.023 1.023 0 01-.022-.27c.011-.384.317-.964.668-1.14.16-.083.385-.081.474.102.306.632-.487 1.785-1.207 1.75.117.028.238.043.362.043a1.58 1.58 0 001.572-1.573zm-.974-1.362a.867.867 0 01.067-.063 1.561 1.561 0 00-.665-.148 1.58 1.58 0 00-1.573 1.573c0 .625.373 1.17.907 1.423-.173-.136-.237-.381-.216-.617.022-.267.133-.52.287-.736.163-.23.376-.374.576-.51.179-.12.347-.234.459-.396 0 0 .009-.013.011-.02.004-.012-.009-.024-.025-.012a.682.682 0 01-.257.106c-.192.022-.296-.24-.328-.385l-.002-.008c-.006-.028-.01-.046-.038-.008-.043.057-.082.236-.121.414-.044.202-.088.404-.139.424l-.372.148s-.016.008-.022-.014c-.033-.126.201-.497.353-.738.039-.062.073-.116.095-.154l.032-.057c.031-.06.076-.141.087-.15a.64.64 0 01.232-.062c.048.451.411.195.567.07a1.08 1.08 0 00.085-.08zM123.9 2.187c0-1.01.829-1.84 1.839-1.84 1.014 0 1.838.825 1.839 1.84 0 1.009-.83 1.84-1.839 1.84a1.847 1.847 0 01-1.839-1.84zM9.29 13.74h5.117l-5.29-8.201L13.823.66H8.805L5.137 4.88V.66H.859v13.079h4.278V9.6l1.018-1.06 3.135 5.2zm10.423-6.473c.281.48.422 1.023.422 1.62a4.43 4.43 0 01-.367 1.823c-.244.548-.65.82-1.218.82-.589 0-1.028-.281-1.312-.845a3.895 3.895 0 01-.43-1.797c0-.592.134-1.131.403-1.618.268-.483.668-.725 1.196-.725.592 0 1.026.242 1.306.722zm-1.147 6.768c1.792 0 3.525-.701 4.536-2.2.81-1.203.97-3.174.52-4.573-.413-1.282-1.362-2.36-2.637-2.884a6.694 6.694 0 00-4.32-.254c-1.29.345-2.414 1.194-3.028 2.368-.797 1.526-.676 3.858.27 5.289 1.033 1.559 2.813 2.254 4.66 2.254zm37.03-7.402c.303.24.524.672.657 1.295h-3.522c.14-.637.342-1.072.61-1.306.267-.237.63-.354 1.089-.354.473 0 .86.12 1.166.365zm-2.828 3.142h7.145a6.545 6.545 0 00-.208-2.1 4.836 4.836 0 00-2.574-3.16c-1.475-.735-3.612-.778-5.138-.15-1.255.52-2.223 1.499-2.693 2.764a5.326 5.326 0 00.021 3.773 4.923 4.923 0 002.696 2.724c1.076.45 2.42.488 3.582.345.906-.103 1.823-.396 2.57-.922.741-.523 1.316-1.318 1.455-2.22h-3.66c-.125.636-.8.871-1.384.871-.797 0-1.353-.462-1.66-1.147a1.88 1.88 0 01-.152-.778zm13.828 4.255c1.565 0 2.863-.837 3.566-2.178.661-1.25.785-3.168.428-4.568-.382-1.505-1.455-2.845-3.047-3.243-1.463-.368-3.275.163-4.007 1.622V4.24h-3.375v12.744h3.812v-4.1c.76.779 1.499 1.144 2.623 1.144zm.058-6.592c.27.473.404.913.404 1.316 0 .534-.128 1.072-.328 1.565-.222.51-.635.766-1.249.766-.628 0-1.047-.246-1.262-.738a3.975 3.975 0 01-.32-1.593c0-.465.137-.917.41-1.36.274-.445.666-.667 1.172-.667.51 0 .902.237 1.173.71zm7.363 6.177c1.475.614 3.488.534 4.97.015 1.662-.582 2.615-1.976 2.654-3.57h-3.77l-.001.007c-.248.794-.447 1.432-1.396 1.432-.672 0-1.363-.54-1.573-1.177-.318-.965-.235-2.267.269-3.148.394-.69 1.63-1.032 2.177-.332.193.246.325.536.394 1.004h3.9c-.19-1.522-.91-2.555-2.288-3.304-1.445-.787-3.706-.81-5.228-.189-1.33.543-2.252 1.326-2.784 2.69a5.36 5.36 0 00-.367 1.897c0 .977.264 1.936.772 2.77.52.866 1.343 1.519 2.271 1.905zm14.53-4.043c.032.111.047.256.047.433 0 .587-.22 1.086-.653 1.5-.456.457-1.366.484-1.908.157-.469-.307-.498-1.067.038-1.332.378-.207.828-.302 1.25-.379.556-.107.964-.233 1.226-.379zm.387 4.168h3.902v-.295c-.383-.25-.576-.632-.576-1.15v-5.02c-.062-.742-.196-1.347-.394-1.812-.199-.468-.626-.719-1.28-1.03-.656-.312-1.64-.468-2.953-.468-.54 0-1.026.02-1.465.055a9.382 9.382 0 00-1.141.149c-.668.139-1.19.35-1.569.62s-.656.596-.833.975c-.113.245-.145.482-.185.786-.022.17-.047.359-.09.582h3.614c.07-.344.222-.575.456-.69.234-.116.717-.174 1.105-.174.324 0 .573.061.747.183.175.121.261.27.261.45v.044c.002.115.004.228-.088.336-.104.121-.314.314-.493.373-.247.082-.76.158-1.327.242l-.297.044-1.598.24c-.182.027-.374.083-.577.14l-.007.003a7.7 7.7 0 00-.631.213c-.45.173-.7.338-.956.633-.447.517-.773 1.093-.773 1.793 0 .553.128 1.094.383 1.629.285.486.697.848 1.242 1.079a4.583 4.583 0 001.805.346c.365 0 .715-.03 1.044-.088.33-.06.65-.156.963-.277.642-.247 1.278-.55 1.563-.917l.148 1.006zm10.74 0h3.765l-.004-.17.004-9.323h-3.806v3.18h-2.746v-3.18h-3.728l-.003.143.003 9.35h3.728v-3.55h2.788v3.55zm10.982-6.695h3.241V4.246h-10.285v2.798h3.269v6.695h3.775V7.044zm14.432 5.746c.638-.523 1.035-1.255 1.035-2.089 0-.87-.438-1.634-1.097-2.18-.877-.727-2.103-.943-3.209-.943h-1.988V4.246h-5.809v2.798h2.177v6.695h5.826c1.066 0 2.226-.255 3.065-.95zm-3.619-2.999c.57.068.902.32.902.92 0 .667-.385.825-.964.868a6.345 6.345 0 01-.634.018l-.944-.018V9.746c.162 0 .616.006.956.02.339.015.568.025.684.025zm-92.124 3.947h1.83l1.998-6.34-.308 2.485v3.856h3.338V4.19h-4.281L30.26 9.465l-1.662-5.274h-4.281v9.548h3.338V9.883l-.309-2.486 1.999 6.341zm12.501 0h1.83l1.999-6.34-.31 2.485v3.856h3.34V4.19h-4.282L42.76 9.465l-1.662-5.274h-4.281v9.548h3.338V9.883l-.309-2.486 2 6.341z" fill="#E4ECEE"/></svg>