<svg width="78" height="22" fill="none" xmlns="http://www.w3.org/2000/svg"><path fill-rule="evenodd" clip-rule="evenodd" d="M.325.631v19.223L19.54.63H.325zm1.372 20.596h19.216V2.004L1.697 21.227zM35.13 7.343c0 2.045-1.188 3.14-3.423 3.14h-2.319v-6.31h2.32c2.177 0 3.422.864 3.422 3.053v.116zM31.82.631h-6.985v20.596h4.553v-7.49h2.574c4.61 0 7.58-2.073 7.58-6.423v-.115c0-4.35-2.8-6.568-7.721-6.568zm16.786 17.053c2.192 0 3.302-.98 3.302-2.852v-.115c0-1.844-1.11-2.852-3.413-2.852h-2.553v5.819h2.664zm.166 3.543h-7.27V.63h12.931v3.63H45.97l-.028 4.32h2.969c4.578 0 7.298 2.046 7.298 6.164v.116c0 4.032-2.525 6.366-7.437 6.366zM64.298.66h-4.78v20.567h4.78v-9.234l7.29 9.234h5.577L68.4 10.382l8.352-9.75h-5.076L64.298 9.52V.66z" fill="#E4ECEE"/></svg>